<?xml version="1.0" encoding="iso-8859-1"?>
<!-- Generator: Adobe Illustrator 19.0.0, SVG Export Plug-In . SVG Version: 6.00 Build 0)  -->
<svg version="1.1" id="Capa_1" xmlns="http://www.w3.org/2000/svg" xmlns:xlink="http://www.w3.org/1999/xlink" x="0px" y="0px"
	 viewBox="0 0 423.253 423.253" style="enable-background:new 0 0 423.253 423.253;" xml:space="preserve">
<path style="fill:#FFE600;" d="M6.827,71.646c0-15.063,12.257-27.273,27.351-27.273h361.796c11.295,0,20.453,9.137,20.453,20.456
	V296.96H6.827V71.646z"/>
<path style="fill:#602F75;" d="M416.427,303.787H6.827c-3.772,0-6.827-3.058-6.827-6.827V71.642
	c0-18.801,15.333-34.096,34.181-34.096h361.793c15.039,0,27.279,12.24,27.279,27.283V296.96
	C423.253,300.728,420.198,303.787,416.427,303.787z M13.653,290.133H409.6V64.829c0-7.516-6.113-13.629-13.626-13.629H34.181
	c-11.322,0-20.528,9.172-20.528,20.442V290.133z"/>
<g>
	<g>
		<circle style="fill:#EA3457;" cx="143.36" cy="269.653" r="13.653"/>
		<circle style="fill:#EA3457;" cx="177.493" cy="269.653" r="13.653"/>
		<circle style="fill:#EA3457;" cx="211.627" cy="269.653" r="13.653"/>
		<circle style="fill:#EA3457;" cx="245.76" cy="269.653" r="13.653"/>
		<circle style="fill:#EA3457;" cx="279.893" cy="269.653" r="13.653"/>
	</g>
	<path style="fill:#EAEAEA;" d="M293.547,351.573H27.279c-11.295,0-20.453-9.141-20.453-20.49V296.96h409.6v34.123
		c0,11.319-9.131,20.49-20.453,20.49h-46.148"/>
</g>
<g>
	<path style="fill:#602F75;" d="M395.974,358.4h-46.148c-3.772,0-6.827-3.058-6.827-6.827s3.055-6.827,6.827-6.827h46.148
		c7.513,0,13.626-6.13,13.626-13.667v-27.293H13.653v27.293c0,7.537,6.113,13.667,13.626,13.667h266.267
		c3.772,0,6.827,3.058,6.827,6.827s-3.055,6.827-6.827,6.827H27.279C12.24,358.4,0,346.143,0,331.08v-34.12
		c0-3.768,3.055-6.827,6.827-6.827h409.6c3.772,0,6.827,3.058,6.827,6.827v34.12C423.253,346.143,411.013,358.4,395.974,358.4z"/>
	<circle style="fill:#602F75;" cx="211.627" cy="324.267" r="13.653"/>
</g>
<path style="fill:#EAEAEA;" d="M167.861,351.573h80.705l10.53,48.108c1.615,7.363-3.096,13.332-10.493,13.332H167.82
	c-7.407,0-12.097-6.004-10.493-13.332L167.861,351.573z"/>
<path style="fill:#602F75;" d="M248.607,419.84H167.82c-5.553,0-10.605-2.321-13.865-6.366c-3.314-4.116-4.512-9.673-3.294-15.251
	l10.534-48.111c0.686-3.133,3.461-5.366,6.666-5.366h80.708c3.205,0,5.98,2.232,6.666,5.366l10.534,48.108
	c1.219,5.588,0.02,11.145-3.287,15.254C259.219,417.519,254.167,419.84,248.607,419.84z M173.353,358.4l-9.359,42.738
	c-0.335,1.536-0.119,2.877,0.594,3.768c0.853,1.055,2.225,1.277,3.232,1.277h80.787c1.007,0,2.386-0.218,3.239-1.277
	c0.713-0.887,0.922-2.229,0.587-3.772l-9.359-42.735H173.353z"/>
<circle style="fill:#FFFFFF;" cx="211.627" cy="105.813" r="95.573"/>
<path style="fill:#602F75;" d="M211.627,208.213c-56.467,0-102.4-45.937-102.4-102.4s45.933-102.4,102.4-102.4
	s102.4,45.937,102.4,102.4S268.093,208.213,211.627,208.213z M211.627,17.067c-48.934,0-88.747,39.81-88.747,88.747
	s39.813,88.747,88.747,88.747s88.747-39.81,88.747-88.747S260.56,17.067,211.627,17.067z"/>
<circle style="fill:#00E7FF;" cx="211.627" cy="105.813" r="68.267"/>
<g>
	<rect x="116.053" y="98.987" style="fill:#602F75;" width="191.147" height="13.653"/>
	<path style="fill:#602F75;" d="M211.367,208.213c-29.747,0-47.527-52.064-47.527-102.4s17.78-102.4,47.527-102.4
		c29.679,0,48.046,53.152,48.046,102.4S241.046,208.213,211.367,208.213z M211.367,17.067c-15.988,0-33.874,37.953-33.874,88.747
		s17.886,88.747,33.874,88.747c15.906,0,34.393-38.765,34.393-88.747S227.273,17.067,211.367,17.067z"/>
</g>
<g>
</g>
<g>
</g>
<g>
</g>
<g>
</g>
<g>
</g>
<g>
</g>
<g>
</g>
<g>
</g>
<g>
</g>
<g>
</g>
<g>
</g>
<g>
</g>
<g>
</g>
<g>
</g>
<g>
</g>
</svg>
